<svg xmlns="http://www.w3.org/2000/svg" viewBox="0 0 900 300" width="900" height="300">
  <defs>
    <linearGradient id="warmBar" x1="0" y1="0" x2="900" y2="0" gradientUnits="userSpaceOnUse">
      <stop offset="0%" stop-color="#f97316"/>
      <stop offset="50%" stop-color="#fbbf24"/>
      <stop offset="100%" stop-color="#f97316"/>
    </linearGradient>
    <linearGradient id="accent" x1="0" y1="0" x2="900" y2="0" gradientUnits="userSpaceOnUse">
      <stop offset="0%" stop-color="#f97316">
        <animate attributeName="stop-color" values="#f97316;#fbbf24;#f97316" dur="8s" repeatCount="indefinite"/>
      </stop>
      <stop offset="100%" stop-color="#fbbf24">
        <animate attributeName="stop-color" values="#fbbf24;#f97316;#fbbf24" dur="8s" repeatCount="indefinite"/>
      </stop>
    </linearGradient>
    <linearGradient id="bg" x1="0" y1="0" x2="900" y2="0" gradientUnits="userSpaceOnUse">
      <stop offset="0%" stop-color="#0d1117"/>
      <stop offset="100%" stop-color="#0a0d12"/>
    </linearGradient>
    <pattern id="dot" width="24" height="24" patternUnits="userSpaceOnUse">
      <circle cx="12" cy="12" r="0.4" fill="#f97316"/>
    </pattern>
    <clipPath id="c"><rect width="900" height="300" rx="10"/></clipPath>
  </defs>

  <style>
    @keyframes up{from{opacity:0;transform:translateY(10px)}to{opacity:1;transform:translateY(0)}}
    @keyframes fi{from{opacity:0}to{opacity:1}}
    @keyframes blink{0%,48%{opacity:1}50%,98%{opacity:0}100%{opacity:1}}
    @keyframes pulse{0%,100%{opacity:.9}50%{opacity:.35}}
    @keyframes scan{0%{transform:translateY(-10px)}100%{transform:translateY(310px)}}
    .n{animation:up .7s ease-out .2s both}
    .h{animation:up .5s ease-out .5s both}
    .t1{animation:up .5s ease-out 1.2s both}
    .t2{animation:up .5s ease-out 1.4s both}
    .cur{animation:blink 1s step-end 1.8s infinite}
    .st{animation:fi .5s ease-out 1.6s both}
    .sd{animation:pulse 2.5s ease-in-out infinite}
    .bar{transform-box:fill-box;transform-origin:bottom center}
    .scanline{animation:scan 5s linear infinite}
  </style>

  <g clip-path="url(#c)">
    <!-- Background -->
    <rect width="900" height="300" fill="url(#bg)"/>
    <rect width="900" height="300" fill="url(#dot)" opacity="0.035"/>

    <!-- Top accent line -->
    <rect width="900" height="2" fill="url(#accent)" opacity="0.8"/>

    <!-- Scanning line (very subtle) -->
    <rect class="scanline" x="0" y="0" width="900" height="1" fill="#f97316" opacity="0.06" rx="0.5"/>

    <!-- NAME -->
    <text class="n" x="48" y="88" font-family="'Helvetica Neue','Arial',sans-serif" font-size="44" font-weight="800" fill="#f0f6fc" letter-spacing="2">QIFAN WU</text>

    <!-- Handle + University -->
    <text class="h" x="50" y="116" font-family="'Menlo','Consolas','Courier New',monospace" font-size="12.5" fill="#8b949e" letter-spacing="0.5">@cookiesheep · Sun Yat-sen University</text>

    <!-- EQUALIZER BARS -->
    <g class="bar" opacity="0.75">
      <rect x="24"  y="152" width="5" height="16" rx="2" fill="#f97316" style="animation:e0 1.0s ease-in-out infinite .00s"/>
      <rect x="40"  y="148" width="5" height="20" rx="2" fill="#f97316" style="animation:e1 1.2s ease-in-out infinite .04s"/>
      <rect x="56"  y="145" width="5" height="23" rx="2" fill="#f97316" style="animation:e2 0.9s ease-in-out infinite .08s"/>
      <rect x="72"  y="150" width="5" height="18" rx="2" fill="#fb923c" style="animation:e3 1.1s ease-in-out infinite .12s"/>
      <rect x="88"  y="146" width="5" height="22" rx="2" fill="#fb923c" style="animation:e4 1.3s ease-in-out infinite .16s"/>
      <rect x="104" y="143" width="5" height="25" rx="2" fill="#fb923c" style="animation:e0 0.8s ease-in-out infinite .20s"/>
      <rect x="120" y="149" width="5" height="19" rx="2" fill="#fbbf24" style="animation:e1 1.0s ease-in-out infinite .24s"/>
      <rect x="136" y="144" width="5" height="24" rx="2" fill="#fbbf24" style="animation:e2 1.2s ease-in-out infinite .28s"/>
      <rect x="152" y="151" width="5" height="17" rx="2" fill="#fbbf24" style="animation:e3 0.9s ease-in-out infinite .32s"/>
      <rect x="168" y="142" width="5" height="26" rx="2" fill="#f97316" style="animation:e4 1.1s ease-in-out infinite .36s"/>
      <rect x="184" y="147" width="5" height="21" rx="2" fill="#f97316" style="animation:e0 1.3s ease-in-out infinite .40s"/>
      <rect x="200" y="140" width="5" height="28" rx="2" fill="#fb923c" style="animation:e1 0.8s ease-in-out infinite .44s"/>
      <rect x="216" y="146" width="5" height="22" rx="2" fill="#fb923c" style="animation:e2 1.0s ease-in-out infinite .48s"/>
      <rect x="232" y="150" width="5" height="18" rx="2" fill="#fb923c" style="animation:e3 1.2s ease-in-out infinite .52s"/>
      <rect x="248" y="138" width="5" height="30" rx="2" fill="#fbbf24" style="animation:e4 0.9s ease-in-out infinite .56s"/>
      <rect x="264" y="144" width="5" height="24" rx="2" fill="#fbbf24" style="animation:e0 1.1s ease-in-out infinite .60s"/>
      <rect x="280" y="148" width="5" height="20" rx="2" fill="#fbbf24" style="animation:e1 1.3s ease-in-out infinite .64s"/>
      <rect x="296" y="141" width="5" height="27" rx="2" fill="#f97316" style="animation:e2 0.8s ease-in-out infinite .68s"/>
      <rect x="312" y="146" width="5" height="22" rx="2" fill="#f97316" style="animation:e3 1.0s ease-in-out infinite .72s"/>
      <rect x="328" y="139" width="5" height="29" rx="2" fill="#fb923c" style="animation:e4 1.2s ease-in-out infinite .76s"/>
      <rect x="344" y="145" width="5" height="23" rx="2" fill="#fb923c" style="animation:e0 0.9s ease-in-out infinite .80s"/>
      <rect x="360" y="150" width="5" height="18" rx="2" fill="#fbbf24" style="animation:e1 1.1s ease-in-out infinite .84s"/>
      <rect x="376" y="143" width="5" height="25" rx="2" fill="#fbbf24" style="animation:e2 1.3s ease-in-out infinite .88s"/>
      <rect x="392" y="147" width="5" height="21" rx="2" fill="#f97316" style="animation:e3 0.8s ease-in-out infinite .92s"/>
      <rect x="408" y="141" width="5" height="27" rx="2" fill="#f97316" style="animation:e4 1.0s ease-in-out infinite .96s"/>
      <rect x="424" y="149" width="5" height="19" rx="2" fill="#fb923c" style="animation:e0 1.2s ease-in-out infinite 1.00s"/>
      <rect x="440" y="144" width="5" height="24" rx="2" fill="#fb923c" style="animation:e1 0.9s ease-in-out infinite 1.04s"/>
      <rect x="456" y="140" width="5" height="28" rx="2" fill="#fbbf24" style="animation:e2 1.1s ease-in-out infinite 1.08s"/>
      <rect x="472" y="148" width="5" height="20" rx="2" fill="#fbbf24" style="animation:e3 1.3s ease-in-out infinite 1.12s"/>
      <rect x="488" y="142" width="5" height="26" rx="2" fill="#f97316" style="animation:e4 0.8s ease-in-out infinite 1.16s"/>
      <rect x="504" y="146" width="5" height="22" rx="2" fill="#f97316" style="animation:e0 1.0s ease-in-out infinite 1.20s"/>
      <rect x="520" y="151" width="5" height="17" rx="2" fill="#fb923c" style="animation:e1 1.2s ease-in-out infinite 1.24s"/>
      <rect x="536" y="145" width="5" height="23" rx="2" fill="#fb923c" style="animation:e2 0.9s ease-in-out infinite 1.28s"/>
      <rect x="552" y="139" width="5" height="29" rx="2" fill="#fbbf24" style="animation:e3 1.1s ease-in-out infinite 1.32s"/>
      <rect x="568" y="147" width="5" height="21" rx="2" fill="#fbbf24" style="animation:e4 1.3s ease-in-out infinite 1.36s"/>
      <rect x="584" y="143" width="5" height="25" rx="2" fill="#f97316" style="animation:e0 0.8s ease-in-out infinite 1.40s"/>
      <rect x="600" y="149" width="5" height="19" rx="2" fill="#f97316" style="animation:e1 1.0s ease-in-out infinite 1.44s"/>
      <rect x="616" y="144" width="5" height="24" rx="2" fill="#fb923c" style="animation:e2 1.2s ease-in-out infinite 1.48s"/>
      <rect x="632" y="140" width="5" height="28" rx="2" fill="#fb923c" style="animation:e3 0.9s ease-in-out infinite 1.52s"/>
      <rect x="648" y="146" width="5" height="22" rx="2" fill="#fbbf24" style="animation:e4 1.1s ease-in-out infinite 1.56s"/>
      <rect x="664" y="150" width="5" height="18" rx="2" fill="#fbbf24" style="animation:e0 1.3s ease-in-out infinite 1.60s"/>
      <rect x="680" y="142" width="5" height="26" rx="2" fill="#f97316" style="animation:e1 0.8s ease-in-out infinite 1.64s"/>
      <rect x="696" y="147" width="5" height="21" rx="2" fill="#f97316" style="animation:e2 1.0s ease-in-out infinite 1.68s"/>
      <rect x="712" y="141" width="5" height="27" rx="2" fill="#fb923c" style="animation:e3 1.2s ease-in-out infinite 1.72s"/>
      <rect x="728" y="145" width="5" height="23" rx="2" fill="#fb923c" style="animation:e4 0.9s ease-in-out infinite 1.76s"/>
      <rect x="744" y="149" width="5" height="19" rx="2" fill="#fbbf24" style="animation:e0 1.1s ease-in-out infinite 1.80s"/>
      <rect x="760" y="139" width="5" height="29" rx="2" fill="#fbbf24" style="animation:e1 1.3s ease-in-out infinite 1.84s"/>
      <rect x="776" y="146" width="5" height="22" rx="2" fill="#f97316" style="animation:e2 0.8s ease-in-out infinite 1.88s"/>
      <rect x="792" y="143" width="5" height="25" rx="2" fill="#f97316" style="animation:e3 1.0s ease-in-out infinite 1.92s"/>
      <rect x="808" y="148" width="5" height="20" rx="2" fill="#fb923c" style="animation:e4 1.2s ease-in-out infinite 1.96s"/>
      <rect x="824" y="144" width="5" height="24" rx="2" fill="#fb923c" style="animation:e0 0.9s ease-in-out infinite 2.00s"/>
      <rect x="840" y="150" width="5" height="18" rx="2" fill="#fbbf24" style="animation:e1 1.1s ease-in-out infinite 2.04s"/>
      <rect x="856" y="146" width="5" height="22" rx="2" fill="#fbbf24" style="animation:e2 1.3s ease-in-out infinite 2.08s"/>
      <rect x="872" y="141" width="5" height="27" rx="2" fill="#f97316" style="animation:e3 0.8s ease-in-out infinite 2.12s"/>
    </g>

    <!-- Equalizer keyframes -->
    <style>
      @keyframes e0{0%,100%{transform:scaleY(1)}50%{transform:scaleY(2.2)}}
      @keyframes e1{0%,100%{transform:scaleY(1)}50%{transform:scaleY(.35)}}
      @keyframes e2{0%,100%{transform:scaleY(.7)}50%{transform:scaleY(1.9)}}
      @keyframes e3{0%,100%{transform:scaleY(1.4)}50%{transform:scaleY(.5)}}
      @keyframes e4{0%,100%{transform:scaleY(.55)}50%{transform:scaleY(2.4)}}
    </style>

    <!-- Research tag -->
    <g class="t1">
      <rect x="48" y="198" width="7" height="7" rx="1.5" fill="#f97316"/>
      <text x="63" y="206" font-family="'Menlo','Consolas','Courier New',monospace" font-size="13" fill="#fb923c" letter-spacing="0.3">Speculative Decoding × PD Separation Load Balancing</text>
    </g>

    <!-- Builder tag -->
    <g class="t2">
      <rect x="48" y="222" width="7" height="7" rx="1.5" fill="#fbbf24"/>
      <text x="63" y="230" font-family="'Menlo','Consolas','Courier New',monospace" font-size="13" fill="#8b949e" letter-spacing="0.3">Building AI Developer Tools · Open Source</text>
    </g>

    <!-- Cursor -->
    <text class="cur" x="48" y="256" font-family="'Menlo','Consolas','Courier New',monospace" font-size="14" fill="#f97316">▌</text>

    <!-- Status bar -->
    <g class="st">
      <line x1="48" y1="270" x2="852" y2="270" stroke="#21262d" stroke-width="0.5"/>
      <circle cx="54" cy="286" r="3" fill="#3fb950" class="sd"/>
      <text x="66" y="290" font-family="'Menlo','Consolas','Courier New',monospace" font-size="10.5" fill="#484f58">Available for collaboration</text>
      <text x="852" y="290" font-family="'Menlo','Consolas','Courier New',monospace" font-size="10.5" fill="#30363d" text-anchor="end">Guangzhou, China</text>
    </g>
  </g>

  <!-- Border -->
  <rect width="900" height="300" rx="10" fill="none" stroke="#21262d" stroke-width="1"/>
</svg>